<?xml version="1.0" encoding="UTF-8" standalone="no"?>
<svg
   viewBox="0 0 16 16"
   version="1.1"
   id="svg1119"
   sodipodi:docname="favicon.svg"
   inkscape:version="1.2 (1:1.2.1+202207142221+cd75a1ee6d)"
   xmlns:inkscape="http://www.inkscape.org/namespaces/inkscape"
   xmlns:sodipodi="http://sodipodi.sourceforge.net/DTD/sodipodi-0.dtd"
   xmlns="http://www.w3.org/2000/svg"
   xmlns:svg="http://www.w3.org/2000/svg">
  <defs
     id="defs1123" />
  <sodipodi:namedview
     id="namedview1121"
     pagecolor="#ffffff"
     bordercolor="#666666"
     borderopacity="1.0"
     inkscape:showpageshadow="2"
     inkscape:pageopacity="0.0"
     inkscape:pagecheckerboard="0"
     inkscape:deskcolor="#d1d1d1"
     showgrid="false"
     inkscape:zoom="11.313709"
     inkscape:cx="14.18633"
     inkscape:cy="-2.3422912"
     inkscape:window-width="1846"
     inkscape:window-height="1016"
     inkscape:window-x="0"
     inkscape:window-y="0"
     inkscape:window-maximized="1"
     inkscape:current-layer="svg1119" />
  <path
     fill="none"
     d="M0 0h16v16H0z"
     id="path1103"
     style="fill:#000000" />
  <path
     id="rect1382"
     style="font-variation-settings:normal;opacity:1;vector-effect:none;fill:#ffffff;fill-opacity:1;fill-rule:evenodd;stroke:none;stroke-width:12.0001;stroke-linecap:round;stroke-linejoin:round;stroke-miterlimit:4;stroke-dasharray:none;stroke-dashoffset:0;stroke-opacity:1;-inkscape-stroke:none;paint-order:markers stroke fill;stop-color:#000000;stop-opacity:1"
     d="M 2.5 1 L 2.5 12 L 1 12 L 4 15 L 7 12 L 5.5 12 L 5.5 1 L 2.5 1 z " />
  <path
     id="rect1436"
     style="font-variation-settings:normal;opacity:1;vector-effect:none;fill:#ffffff;fill-opacity:1;fill-rule:evenodd;stroke:none;stroke-width:12.0001;stroke-linecap:round;stroke-linejoin:round;stroke-miterlimit:4;stroke-dasharray:none;stroke-dashoffset:0;stroke-opacity:1;-inkscape-stroke:none;paint-order:markers stroke fill;stop-color:#000000;stop-opacity:1"
     d="M 8 1 L 8 4 L 8 5 L 10 5 L 15 5 L 15 4 L 10 4 L 10 1 L 8 1 z " />
  <path
     id="rect1444"
     style="font-variation-settings:normal;opacity:1;fill:#ffffff;fill-opacity:1;fill-rule:evenodd;stroke:none;stroke-width:12.0001;stroke-linecap:round;stroke-linejoin:round;stroke-miterlimit:4;stroke-dasharray:none;stroke-dashoffset:0;stroke-opacity:1;paint-order:markers stroke fill;stop-color:#000000;stop-opacity:1"
     d="M 8 11 L 8 12 L 8 15 L 10 15 L 11 15 A 4 2 0 0 0 14.464844 14 A 4 2 0 0 0 14.464844 12 A 4 2 0 0 0 11 11 L 10 11 L 8 11 z M 10 12 L 11 12 A 2 1 0 0 1 12.732422 12.5 A 2 1 0 0 1 12.732422 13.5 A 2 1 0 0 1 11 14 L 10 14 L 10 12 z " />
  <path
     id="rect1446"
     style="font-variation-settings:normal;opacity:1;vector-effect:none;fill:#ffffff;fill-opacity:1;fill-rule:evenodd;stroke:none;stroke-width:12.0001;stroke-linecap:round;stroke-linejoin:round;stroke-miterlimit:4;stroke-dasharray:none;stroke-dashoffset:0;stroke-opacity:1;-inkscape-stroke:none;paint-order:markers stroke fill;stop-color:#000000;stop-opacity:1"
     d="M 12 6 A 4 2 0 0 0 8.5351562 7 A 4 2 0 0 0 8.5351562 9 A 4 2 0 0 0 12 10 L 15 10 L 15 9 L 15 8 L 13 8 L 13 9 L 12 9 A 2 1 0 0 1 10.267578 8.5 A 2 1 0 0 1 10.267578 7.5 A 2 1 0 0 1 12 7 L 15 7 L 15 6 L 12 6 z " />
</svg>
